<?xml version="1.0" encoding="UTF-8" standalone="no"?>
<!DOCTYPE svg PUBLIC "-//W3C//DTD SVG 1.1//EN"
 "http://www.w3.org/Graphics/SVG/1.1/DTD/svg11.dtd">
<!-- Generated by graphviz version 2.43.0 (0)
 -->
<!-- Title: G Pages: 1 -->
<svg width="1307pt" height="1045pt"
 viewBox="0.00 0.00 1307.37 1044.53" xmlns="http://www.w3.org/2000/svg" xmlns:xlink="http://www.w3.org/1999/xlink">
<g id="graph0" class="graph" transform="scale(1 1) rotate(0) translate(4 1040.53)">
<title>G</title><style>.edge>path:hover{stroke-width:8}</style>
<polygon fill="white" stroke="transparent" points="-4,4 -4,-1040.53 1303.37,-1040.53 1303.37,4 -4,4"/>
<g id="clust1" class="cluster">
<title>cluster_xai</title><style>.edge>path:hover{stroke-width:8}</style>
<polygon fill="none" stroke="black" points="521,-8 521,-918.53 1279,-918.53 1279,-8 521,-8"/>
<text text-anchor="middle" x="900" y="-903.33" font-family="Times,serif" font-size="14.00">xai</text>
</g>
<!-- xai -->
<g id="node1" class="node">
<title>xai</title><style>.edge>path:hover{stroke-width:8}</style>
<ellipse fill="#7a1e5c" stroke="black" cx="1110" cy="-146.75" rx="27" ry="18"/>
<text text-anchor="middle" x="1110" y="-144.25" font-family="Helvetica,sans-Serif" font-size="10.00" fill="#ffffff">xai</text>
</g>
<!-- xai_agents -->
<g id="node2" class="node">
<title>xai_agents</title><style>.edge>path:hover{stroke-width:8}</style>
<ellipse fill="#df0b99" stroke="black" cx="807" cy="-775.55" rx="40.06" ry="18"/>
<text text-anchor="middle" x="807" y="-773.05" font-family="Helvetica,sans-Serif" font-size="10.00" fill="#ffffff">xai.agents</text>
</g>
<!-- xai_agents&#45;&gt;xai -->
<g id="edge24" class="edge">
<title>xai_agents&#45;&gt;xai</title><style>.edge>path:hover{stroke-width:8}</style>
<path fill="none" stroke="black" d="M834.4,-762.1C853.99,-752.5 880.42,-738.11 901,-721.55 944.65,-686.43 950.88,-672 985,-627.57 1003.76,-603.13 1001.3,-591.46 1023,-569.58 1043.32,-549.11 1060.64,-557.34 1077,-533.58 1114.56,-479.04 1110,-454.5 1110,-388.27 1110,-388.27 1110,-388.27 1110,-284.51 1110,-246.57 1110,-202.71 1110,-175.11"/>
<polygon fill="#000000" stroke="black" points="1113.5,-175.02 1110,-165.02 1106.5,-175.02 1113.5,-175.02"/>
</g>
<!-- xai_games_asteroids_reward -->
<g id="node14" class="node">
<title>xai_games_asteroids_reward</title><style>.edge>path:hover{stroke-width:8}</style>
<ellipse fill="#a3287a" stroke="black" cx="697" cy="-496.81" rx="45.92" ry="36.54"/>
<text text-anchor="middle" x="697" y="-510.81" font-family="Helvetica,sans-Serif" font-size="10.00" fill="#ffffff">xai.</text>
<text text-anchor="middle" x="697" y="-499.81" font-family="Helvetica,sans-Serif" font-size="10.00" fill="#ffffff">games.</text>
<text text-anchor="middle" x="697" y="-488.81" font-family="Helvetica,sans-Serif" font-size="10.00" fill="#ffffff">asteroids.</text>
<text text-anchor="middle" x="697" y="-477.81" font-family="Helvetica,sans-Serif" font-size="10.00" fill="#ffffff">reward</text>
</g>
<!-- xai_agents&#45;&gt;xai_games_asteroids_reward -->
<g id="edge25" class="edge">
<title>xai_agents&#45;&gt;xai_games_asteroids_reward</title><style>.edge>path:hover{stroke-width:8}</style>
<path fill="none" stroke="black" d="M773.2,-765.58C718.07,-748.92 610.5,-707.4 566,-627.57 553.45,-605.06 552.22,-591.36 566,-569.58 585.99,-538 609.37,-551.81 642,-533.58 645.91,-531.4 649.91,-529.04 653.89,-526.62"/>
<polygon fill="#000000" stroke="black" points="655.89,-529.5 662.52,-521.24 652.18,-523.56 655.89,-529.5"/>
</g>
<!-- xai_games_game_stats -->
<g id="node16" class="node">
<title>xai_games_game_stats</title><style>.edge>path:hover{stroke-width:8}</style>
<ellipse fill="#bc2f8d" stroke="black" cx="897" cy="-598.57" rx="52.15" ry="28.98"/>
<text text-anchor="middle" x="897" y="-607.07" font-family="Helvetica,sans-Serif" font-size="10.00" fill="#ffffff">xai.</text>
<text text-anchor="middle" x="897" y="-596.07" font-family="Helvetica,sans-Serif" font-size="10.00" fill="#ffffff">games.</text>
<text text-anchor="middle" x="897" y="-585.07" font-family="Helvetica,sans-Serif" font-size="10.00" fill="#ffffff">game_stats</text>
</g>
<!-- xai_agents&#45;&gt;xai_games_game_stats -->
<g id="edge26" class="edge">
<title>xai_agents&#45;&gt;xai_games_game_stats</title><style>.edge>path:hover{stroke-width:8}</style>
<path fill="none" stroke="black" d="M815.63,-757.77C829.99,-729.86 859.1,-673.26 878.33,-635.88"/>
<polygon fill="#000000" stroke="black" points="881.52,-637.31 882.99,-626.82 875.3,-634.11 881.52,-637.31"/>
</g>
<!-- xai_agents_agent -->
<g id="node3" class="node">
<title>xai_agents_agent</title><style>.edge>path:hover{stroke-width:8}</style>
<ellipse fill="#8b2268" stroke="black" cx="734" cy="-285.51" rx="37.45" ry="28.98"/>
<text text-anchor="middle" x="734" y="-294.01" font-family="Helvetica,sans-Serif" font-size="10.00" fill="#ffffff">xai.</text>
<text text-anchor="middle" x="734" y="-283.01" font-family="Helvetica,sans-Serif" font-size="10.00" fill="#ffffff">agents.</text>
<text text-anchor="middle" x="734" y="-272.01" font-family="Helvetica,sans-Serif" font-size="10.00" fill="#ffffff">agent</text>
</g>
<!-- xai_agents_agent&#45;&gt;xai -->
<g id="edge27" class="edge">
<title>xai_agents_agent&#45;&gt;xai</title><style>.edge>path:hover{stroke-width:8}</style>
<path fill="none" stroke="black" d="M762.15,-266C767.93,-262.6 774.06,-259.26 780,-256.52 883.29,-208.84 1013.49,-172.38 1074.89,-156.49"/>
<polygon fill="#000000" stroke="black" points="1076.02,-159.81 1084.84,-153.94 1074.28,-153.03 1076.02,-159.81"/>
</g>
<!-- xai_agents_agent&#45;&gt;xai_agents -->
<g id="edge28" class="edge">
<title>xai_agents_agent&#45;&gt;xai_agents</title><style>.edge>path:hover{stroke-width:8}</style>
<path fill="none" stroke="black" d="M746.57,-313.09C767.89,-362.55 804.03,-469.46 752,-533.58 703.06,-593.89 629.94,-509.27 581,-569.58 564.76,-589.59 568.71,-604.91 581,-627.57 582.37,-630.1 715.22,-715.62 776.57,-755.02"/>
<polygon fill="#000000" stroke="black" points="774.77,-758.03 785.08,-760.49 778.56,-752.14 774.77,-758.03"/>
</g>
<!-- xai_agents_asteroids -->
<g id="node4" class="node">
<title>xai_agents_asteroids</title><style>.edge>path:hover{stroke-width:8}</style>
<ellipse fill="#c04095" stroke="black" cx="833" cy="-44.99" rx="43.68" ry="28.98"/>
<text text-anchor="middle" x="833" y="-53.49" font-family="Helvetica,sans-Serif" font-size="10.00" fill="#ffffff">xai.</text>
<text text-anchor="middle" x="833" y="-42.49" font-family="Helvetica,sans-Serif" font-size="10.00" fill="#ffffff">agents.</text>
<text text-anchor="middle" x="833" y="-31.49" font-family="Helvetica,sans-Serif" font-size="10.00" fill="#ffffff">asteroids</text>
</g>
<!-- xai_agents_asteroids&#45;&gt;xai_games_asteroids_reward -->
<g id="edge29" class="edge">
<title>xai_agents_asteroids&#45;&gt;xai_games_asteroids_reward</title><style>.edge>path:hover{stroke-width:8}</style>
<path fill="none" stroke="black" d="M799.37,-64.02C753.78,-91.18 678,-147.21 678,-219.52 678,-286.51 678,-286.51 678,-286.51 678,-342.97 684.94,-407.65 690.43,-449.98"/>
<polygon fill="#000000" stroke="black" points="686.98,-450.52 691.76,-459.98 693.91,-449.61 686.98,-450.52"/>
</g>
<!-- xai_agents_asteroids_policy -->
<g id="node5" class="node">
<title>xai_agents_asteroids_policy</title><style>.edge>path:hover{stroke-width:8}</style>
<ellipse fill="#b03a89" stroke="black" cx="833" cy="-146.75" rx="45.92" ry="36.54"/>
<text text-anchor="middle" x="833" y="-160.75" font-family="Helvetica,sans-Serif" font-size="10.00" fill="#ffffff">xai.</text>
<text text-anchor="middle" x="833" y="-149.75" font-family="Helvetica,sans-Serif" font-size="10.00" fill="#ffffff">agents.</text>
<text text-anchor="middle" x="833" y="-138.75" font-family="Helvetica,sans-Serif" font-size="10.00" fill="#ffffff">asteroids.</text>
<text text-anchor="middle" x="833" y="-127.75" font-family="Helvetica,sans-Serif" font-size="10.00" fill="#ffffff">policy</text>
</g>
<!-- xai_agents_asteroids_policy&#45;&gt;xai_agents_asteroids -->
<g id="edge30" class="edge">
<title>xai_agents_asteroids_policy&#45;&gt;xai_agents_asteroids</title><style>.edge>path:hover{stroke-width:8}</style>
<path fill="none" stroke="black" d="M833,-109.74C833,-101.5 833,-92.71 833,-84.37"/>
<polygon fill="#000000" stroke="black" points="836.5,-84.13 833,-74.13 829.5,-84.13 836.5,-84.13"/>
</g>
<!-- xai_agents_memory -->
<g id="node6" class="node">
<title>xai_agents_memory</title><style>.edge>path:hover{stroke-width:8}</style>
<ellipse fill="#cc3399" stroke="black" cx="807" cy="-858.54" rx="41.02" ry="28.98"/>
<text text-anchor="middle" x="807" y="-867.04" font-family="Helvetica,sans-Serif" font-size="10.00" fill="#ffffff">xai.</text>
<text text-anchor="middle" x="807" y="-856.04" font-family="Helvetica,sans-Serif" font-size="10.00" fill="#ffffff">agents.</text>
<text text-anchor="middle" x="807" y="-845.04" font-family="Helvetica,sans-Serif" font-size="10.00" fill="#ffffff">memory</text>
</g>
<!-- xai_agents_memory&#45;&gt;xai -->
<g id="edge31" class="edge">
<title>xai_agents_memory&#45;&gt;xai</title><style>.edge>path:hover{stroke-width:8}</style>
<path fill="none" stroke="black" d="M830.06,-833.98C855.95,-807.26 898.95,-762.13 934,-721.55 968.93,-681.1 980.22,-672.6 1009,-627.57 1024.52,-603.29 1018.5,-590.8 1038,-569.58 1058.79,-546.97 1079.07,-558.53 1097,-533.58 1135.65,-479.8 1130,-454.5 1130,-388.27 1130,-388.27 1130,-388.27 1130,-284.51 1130,-246.17 1122.21,-202.41 1116.35,-174.94"/>
<polygon fill="#000000" stroke="black" points="1119.71,-173.92 1114.14,-164.91 1112.88,-175.42 1119.71,-173.92"/>
</g>
<!-- xai_agents_memory&#45;&gt;xai_agents -->
<g id="edge32" class="edge">
<title>xai_agents_memory&#45;&gt;xai_agents</title><style>.edge>path:hover{stroke-width:8}</style>
<path fill="none" stroke="black" d="M807,-829.21C807,-820.97 807,-811.98 807,-803.8"/>
<polygon fill="#000000" stroke="black" points="810.5,-803.64 807,-793.64 803.5,-803.64 810.5,-803.64"/>
</g>
<!-- xai_agents_policy -->
<g id="node7" class="node">
<title>xai_agents_policy</title><style>.edge>path:hover{stroke-width:8}</style>
<ellipse fill="#b42d87" stroke="black" cx="952" cy="-285.51" rx="37.45" ry="28.98"/>
<text text-anchor="middle" x="952" y="-294.01" font-family="Helvetica,sans-Serif" font-size="10.00" fill="#ffffff">xai.</text>
<text text-anchor="middle" x="952" y="-283.01" font-family="Helvetica,sans-Serif" font-size="10.00" fill="#ffffff">agents.</text>
<text text-anchor="middle" x="952" y="-272.01" font-family="Helvetica,sans-Serif" font-size="10.00" fill="#ffffff">policy</text>
</g>
<!-- xai_agents_policy&#45;&gt;xai -->
<g id="edge33" class="edge">
<title>xai_agents_policy&#45;&gt;xai</title><style>.edge>path:hover{stroke-width:8}</style>
<path fill="none" stroke="black" d="M968.75,-259.52C977.99,-246.74 990.17,-231.43 1003,-219.52 1026.92,-197.32 1058.33,-177.11 1080.92,-163.84"/>
<polygon fill="#000000" stroke="black" points="1082.81,-166.79 1089.72,-158.76 1079.31,-160.73 1082.81,-166.79"/>
</g>
<!-- xai_agents_policy&#45;&gt;xai_agents -->
<g id="edge34" class="edge">
<title>xai_agents_policy&#45;&gt;xai_agents</title><style>.edge>path:hover{stroke-width:8}</style>
<path fill="none" stroke="black" d="M968.5,-311.88C995.59,-356.76 1044.17,-453.05 1020,-533.58 1012.81,-557.55 973.95,-608.29 958,-627.57 918.19,-675.7 864.31,-725.01 832.84,-752.52"/>
<polygon fill="#000000" stroke="black" points="830.23,-750.15 824.97,-759.35 834.81,-755.44 830.23,-750.15"/>
</g>
<!-- xai_games -->
<g id="node8" class="node">
<title>xai_games</title><style>.edge>path:hover{stroke-width:8}</style>
<ellipse fill="#d1058d" stroke="black" cx="971" cy="-496.81" rx="40.06" ry="18"/>
<text text-anchor="middle" x="971" y="-494.31" font-family="Helvetica,sans-Serif" font-size="10.00" fill="#ffffff">xai.games</text>
</g>
<!-- xai_games&#45;&gt;xai -->
<g id="edge35" class="edge">
<title>xai_games&#45;&gt;xai</title><style>.edge>path:hover{stroke-width:8}</style>
<path fill="none" stroke="black" d="M975.1,-478.63C988.72,-421.91 1032.23,-242.96 1045,-219.52 1055.59,-200.09 1072.47,-181.67 1086.38,-168.35"/>
<polygon fill="#000000" stroke="black" points="1088.8,-170.88 1093.74,-161.51 1084.03,-165.76 1088.8,-170.88"/>
</g>
<!-- xai_games&#45;&gt;xai_agents_agent -->
<g id="edge36" class="edge">
<title>xai_games&#45;&gt;xai_agents_agent</title><style>.edge>path:hover{stroke-width:8}</style>
<path fill="none" stroke="black" d="M953.57,-480.42C914,-445.47 816.86,-359.69 766.09,-314.85"/>
<polygon fill="#000000" stroke="black" points="768.17,-312.02 758.36,-308.02 763.54,-317.27 768.17,-312.02"/>
</g>
<!-- xai_games&#45;&gt;xai_agents_asteroids_policy -->
<g id="edge37" class="edge">
<title>xai_games&#45;&gt;xai_agents_asteroids_policy</title><style>.edge>path:hover{stroke-width:8}</style>
<path fill="none" stroke="black" d="M964.84,-478.84C953.21,-446.77 927.3,-375.07 906,-314.5 896.96,-288.79 896.43,-281.71 886,-256.52 876.77,-234.24 865.16,-210.07 855.16,-190.18"/>
<polygon fill="#000000" stroke="black" points="858.19,-188.41 850.54,-181.08 851.94,-191.58 858.19,-188.41"/>
</g>
<!-- xai_games&#45;&gt;xai_agents_policy -->
<g id="edge38" class="edge">
<title>xai_games&#45;&gt;xai_agents_policy</title><style>.edge>path:hover{stroke-width:8}</style>
<path fill="none" stroke="black" d="M969.45,-478.69C966.41,-445.26 959.64,-370.62 955.48,-324.83"/>
<polygon fill="#000000" stroke="black" points="958.95,-324.32 954.56,-314.68 951.98,-324.96 958.95,-324.32"/>
</g>
<!-- xai_games_action -->
<g id="node9" class="node">
<title>xai_games_action</title><style>.edge>path:hover{stroke-width:8}</style>
<ellipse fill="#db2fa1" stroke="black" cx="779" cy="-692.56" rx="37.45" ry="28.98"/>
<text text-anchor="middle" x="779" y="-701.06" font-family="Helvetica,sans-Serif" font-size="10.00" fill="#ffffff">xai.</text>
<text text-anchor="middle" x="779" y="-690.06" font-family="Helvetica,sans-Serif" font-size="10.00" fill="#ffffff">games.</text>
<text text-anchor="middle" x="779" y="-679.06" font-family="Helvetica,sans-Serif" font-size="10.00" fill="#ffffff">action</text>
</g>
<!-- xai_games_action&#45;&gt;xai -->
<g id="edge39" class="edge">
<title>xai_games_action&#45;&gt;xai</title><style>.edge>path:hover{stroke-width:8}</style>
<path fill="none" stroke="black" d="M815.46,-684.85C853.78,-676.44 914.44,-659.13 958,-627.57 984.41,-608.42 979.12,-591.8 1003,-569.58 1024.12,-549.93 1040.64,-557.34 1057,-533.58 1094.56,-479.04 1090,-454.5 1090,-388.27 1090,-388.27 1090,-388.27 1090,-284.51 1090,-246.17 1097.79,-202.41 1103.65,-174.94"/>
<polygon fill="#000000" stroke="black" points="1107.12,-175.42 1105.86,-164.91 1100.29,-173.92 1107.12,-175.42"/>
</g>
<!-- xai_games_action&#45;&gt;xai_games -->
<g id="edge40" class="edge">
<title>xai_games_action&#45;&gt;xai_games</title><style>.edge>path:hover{stroke-width:8}</style>
<path fill="none" stroke="black" d="M760.2,-667.47C741.86,-640.85 719.86,-598 743,-569.58 792.86,-508.35 844.1,-563.94 917,-533.58 926.15,-529.77 935.4,-524.35 943.59,-518.87"/>
<polygon fill="#000000" stroke="black" points="945.83,-521.58 952.02,-512.98 941.82,-515.84 945.83,-521.58"/>
</g>
<!-- xai_games_asteroids_action -->
<g id="node11" class="node">
<title>xai_games_asteroids_action</title><style>.edge>path:hover{stroke-width:8}</style>
<ellipse fill="#cc3399" stroke="black" cx="847" cy="-496.81" rx="45.92" ry="36.54"/>
<text text-anchor="middle" x="847" y="-510.81" font-family="Helvetica,sans-Serif" font-size="10.00" fill="#ffffff">xai.</text>
<text text-anchor="middle" x="847" y="-499.81" font-family="Helvetica,sans-Serif" font-size="10.00" fill="#ffffff">games.</text>
<text text-anchor="middle" x="847" y="-488.81" font-family="Helvetica,sans-Serif" font-size="10.00" fill="#ffffff">asteroids.</text>
<text text-anchor="middle" x="847" y="-477.81" font-family="Helvetica,sans-Serif" font-size="10.00" fill="#ffffff">action</text>
</g>
<!-- xai_games_action&#45;&gt;xai_games_asteroids_action -->
<g id="edge41" class="edge">
<title>xai_games_action&#45;&gt;xai_games_asteroids_action</title><style>.edge>path:hover{stroke-width:8}</style>
<path fill="none" stroke="black" d="M755.61,-669.9C744.99,-658.47 733.58,-643.52 728,-627.57 719.49,-603.24 715.33,-592.02 728,-569.58 736.12,-555.21 769.56,-535.69 798.93,-520.64"/>
<polygon fill="#000000" stroke="black" points="800.53,-523.75 807.88,-516.13 797.38,-517.51 800.53,-523.75"/>
</g>
<!-- xai_games_asteroids -->
<g id="node10" class="node">
<title>xai_games_asteroids</title><style>.edge>path:hover{stroke-width:8}</style>
<ellipse fill="#b42d87" stroke="black" cx="833" cy="-285.51" rx="43.68" ry="28.98"/>
<text text-anchor="middle" x="833" y="-294.01" font-family="Helvetica,sans-Serif" font-size="10.00" fill="#ffffff">xai.</text>
<text text-anchor="middle" x="833" y="-283.01" font-family="Helvetica,sans-Serif" font-size="10.00" fill="#ffffff">games.</text>
<text text-anchor="middle" x="833" y="-272.01" font-family="Helvetica,sans-Serif" font-size="10.00" fill="#ffffff">asteroids</text>
</g>
<!-- xai_games_asteroids&#45;&gt;xai_agents_asteroids_policy -->
<g id="edge42" class="edge">
<title>xai_games_asteroids&#45;&gt;xai_agents_asteroids_policy</title><style>.edge>path:hover{stroke-width:8}</style>
<path fill="none" stroke="black" d="M833,-256.51C833,-238.46 833,-214.56 833,-193.76"/>
<polygon fill="#000000" stroke="black" points="836.5,-193.53 833,-183.53 829.5,-193.53 836.5,-193.53"/>
</g>
<!-- xai_games_asteroids_action&#45;&gt;xai_games_asteroids -->
<g id="edge43" class="edge">
<title>xai_games_asteroids_action&#45;&gt;xai_games_asteroids</title><style>.edge>path:hover{stroke-width:8}</style>
<path fill="none" stroke="black" d="M844.59,-459.83C842.08,-422.23 838.15,-363.44 835.57,-324.94"/>
<polygon fill="#000000" stroke="black" points="839.04,-324.4 834.88,-314.66 832.06,-324.87 839.04,-324.4"/>
</g>
<!-- xai_games_asteroids_asteroids -->
<g id="node12" class="node">
<title>xai_games_asteroids_asteroids</title><style>.edge>path:hover{stroke-width:8}</style>
<ellipse fill="#913071" stroke="black" cx="613" cy="-387.27" rx="45.92" ry="36.54"/>
<text text-anchor="middle" x="613" y="-401.27" font-family="Helvetica,sans-Serif" font-size="10.00" fill="#ffffff">xai.</text>
<text text-anchor="middle" x="613" y="-390.27" font-family="Helvetica,sans-Serif" font-size="10.00" fill="#ffffff">games.</text>
<text text-anchor="middle" x="613" y="-379.27" font-family="Helvetica,sans-Serif" font-size="10.00" fill="#ffffff">asteroids.</text>
<text text-anchor="middle" x="613" y="-368.27" font-family="Helvetica,sans-Serif" font-size="10.00" fill="#ffffff">asteroids</text>
</g>
<!-- xai_games_asteroids_action&#45;&gt;xai_games_asteroids_asteroids -->
<g id="edge44" class="edge">
<title>xai_games_asteroids_action&#45;&gt;xai_games_asteroids_asteroids</title><style>.edge>path:hover{stroke-width:8}</style>
<path fill="none" stroke="black" d="M811.31,-473.38C803.42,-468.75 795.02,-464.06 787,-460.04 746.67,-439.84 699.25,-420.56 664.11,-407.08"/>
<polygon fill="#000000" stroke="black" points="665.13,-403.73 654.54,-403.44 662.64,-410.27 665.13,-403.73"/>
</g>
<!-- xai_games_asteroids_asteroids&#45;&gt;xai_games_asteroids -->
<g id="edge45" class="edge">
<title>xai_games_asteroids_asteroids&#45;&gt;xai_games_asteroids</title><style>.edge>path:hover{stroke-width:8}</style>
<path fill="none" stroke="black" d="M653.56,-369.91C687.63,-355.91 737.44,-334.85 780,-314.5 783.54,-312.81 787.19,-311.01 790.84,-309.17"/>
<polygon fill="#000000" stroke="black" points="792.55,-312.22 799.84,-304.54 789.35,-306 792.55,-312.22"/>
</g>
<!-- xai_games_asteroids_observation -->
<g id="node13" class="node">
<title>xai_games_asteroids_observation</title><style>.edge>path:hover{stroke-width:8}</style>
<ellipse fill="#a3287a" stroke="black" cx="581" cy="-496.81" rx="52.15" ry="36.54"/>
<text text-anchor="middle" x="581" y="-510.81" font-family="Helvetica,sans-Serif" font-size="10.00" fill="#ffffff">xai.</text>
<text text-anchor="middle" x="581" y="-499.81" font-family="Helvetica,sans-Serif" font-size="10.00" fill="#ffffff">games.</text>
<text text-anchor="middle" x="581" y="-488.81" font-family="Helvetica,sans-Serif" font-size="10.00" fill="#ffffff">asteroids.</text>
<text text-anchor="middle" x="581" y="-477.81" font-family="Helvetica,sans-Serif" font-size="10.00" fill="#ffffff">observation</text>
</g>
<!-- xai_games_asteroids_observation&#45;&gt;xai_games_asteroids -->
<g id="edge46" class="edge">
<title>xai_games_asteroids_observation&#45;&gt;xai_games_asteroids</title><style>.edge>path:hover{stroke-width:8}</style>
<path fill="none" stroke="black" d="M614.5,-468.25C630.68,-454.91 650.37,-438.67 668,-424.04 713.12,-386.63 765.04,-343.31 798.39,-315.45"/>
<polygon fill="#000000" stroke="black" points="801.03,-317.81 806.46,-308.71 796.54,-312.43 801.03,-317.81"/>
</g>
<!-- xai_games_asteroids_observation&#45;&gt;xai_games_asteroids_asteroids -->
<g id="edge47" class="edge">
<title>xai_games_asteroids_observation&#45;&gt;xai_games_asteroids_asteroids</title><style>.edge>path:hover{stroke-width:8}</style>
<path fill="none" stroke="black" d="M591.48,-460.6C594.1,-451.78 596.95,-442.21 599.69,-433"/>
<polygon fill="#000000" stroke="black" points="603.11,-433.78 602.61,-423.2 596.4,-431.78 603.11,-433.78"/>
</g>
<!-- xai_games_asteroids_reward&#45;&gt;xai_games_asteroids -->
<g id="edge48" class="edge">
<title>xai_games_asteroids_reward&#45;&gt;xai_games_asteroids</title><style>.edge>path:hover{stroke-width:8}</style>
<path fill="none" stroke="black" d="M737.94,-479.74C762.43,-467.99 791.99,-449.62 809,-424.04 828.48,-394.74 833.59,-354.45 834.36,-325.05"/>
<polygon fill="#000000" stroke="black" points="837.86,-324.79 834.46,-314.75 830.86,-324.72 837.86,-324.79"/>
</g>
<!-- xai_games_asteroids_reward&#45;&gt;xai_games_asteroids_asteroids -->
<g id="edge49" class="edge">
<title>xai_games_asteroids_reward&#45;&gt;xai_games_asteroids_asteroids</title><style>.edge>path:hover{stroke-width:8}</style>
<path fill="none" stroke="black" d="M673.15,-465.28C663.84,-453.36 653.06,-439.56 643.21,-426.96"/>
<polygon fill="#000000" stroke="black" points="645.82,-424.61 636.91,-418.88 640.3,-428.91 645.82,-424.61"/>
</g>
<!-- xai_games_env -->
<g id="node15" class="node">
<title>xai_games_env</title><style>.edge>path:hover{stroke-width:8}</style>
<ellipse fill="#c82391" stroke="black" cx="642" cy="-598.57" rx="52.28" ry="18"/>
<text text-anchor="middle" x="642" y="-596.07" font-family="Helvetica,sans-Serif" font-size="10.00" fill="#ffffff">xai.games.env</text>
</g>
<!-- xai_games_env&#45;&gt;xai -->
<g id="edge50" class="edge">
<title>xai_games_env&#45;&gt;xai</title><style>.edge>path:hover{stroke-width:8}</style>
<path fill="none" stroke="black" d="M677.73,-585.14C693.35,-579.94 711.97,-574.08 729,-569.58 804.93,-549.53 844.82,-587.41 902,-533.58 926.66,-510.37 909.64,-491.58 922,-460.04 948.62,-392.1 971.8,-382.61 998,-314.5 1007.56,-289.66 1001.41,-280.48 1013,-256.52 1030.27,-220.82 1062.76,-188.06 1085.35,-168.02"/>
<polygon fill="#000000" stroke="black" points="1087.92,-170.43 1093.18,-161.23 1083.33,-165.14 1087.92,-170.43"/>
</g>
<!-- xai_games_env&#45;&gt;xai_games -->
<g id="edge51" class="edge">
<title>xai_games_env&#45;&gt;xai_games</title><style>.edge>path:hover{stroke-width:8}</style>
<path fill="none" stroke="black" d="M676.85,-585.12C692.38,-579.86 710.97,-573.96 728,-569.58 810.82,-548.31 837.8,-565.83 917,-533.58 926.18,-529.85 935.44,-524.44 943.63,-518.96"/>
<polygon fill="#000000" stroke="black" points="945.87,-521.67 952.05,-513.06 941.86,-515.94 945.87,-521.67"/>
</g>
<!-- xai_games_env&#45;&gt;xai_games_asteroids_asteroids -->
<g id="edge52" class="edge">
<title>xai_games_env&#45;&gt;xai_games_asteroids_asteroids</title><style>.edge>path:hover{stroke-width:8}</style>
<path fill="none" stroke="black" d="M672.81,-583.92C702.17,-570.2 743.16,-548.95 752,-533.58 768.3,-505.25 769,-487.96 752,-460.04 733.51,-429.7 697.62,-411.62 666.93,-401.2"/>
<polygon fill="#000000" stroke="black" points="667.77,-397.8 657.18,-398.08 665.64,-404.46 667.77,-397.8"/>
</g>
<!-- xai_games_game_stats&#45;&gt;xai -->
<g id="edge53" class="edge">
<title>xai_games_game_stats&#45;&gt;xai</title><style>.edge>path:hover{stroke-width:8}</style>
<path fill="none" stroke="black" d="M940.52,-582.16C976.01,-568.76 1022.28,-549.11 1035,-533.58 1077.1,-482.2 1070,-454.7 1070,-388.27 1070,-388.27 1070,-388.27 1070,-284.51 1070,-244.41 1086.04,-200.27 1097.8,-173.27"/>
<polygon fill="#000000" stroke="black" points="1101,-174.7 1101.91,-164.14 1094.61,-171.83 1101,-174.7"/>
</g>
<!-- xai_games_game_stats&#45;&gt;xai_games -->
<g id="edge54" class="edge">
<title>xai_games_game_stats&#45;&gt;xai_games</title><style>.edge>path:hover{stroke-width:8}</style>
<path fill="none" stroke="black" d="M916.44,-571.36C927.68,-556.21 941.74,-537.26 952.77,-522.39"/>
<polygon fill="#000000" stroke="black" points="955.72,-524.29 958.87,-514.17 950.1,-520.12 955.72,-524.29"/>
</g>
<!-- xai_games_observation -->
<g id="node17" class="node">
<title>xai_games_observation</title><style>.edge>path:hover{stroke-width:8}</style>
<ellipse fill="#ac2b81" stroke="black" cx="1099" cy="-598.57" rx="52.15" ry="28.98"/>
<text text-anchor="middle" x="1099" y="-607.07" font-family="Helvetica,sans-Serif" font-size="10.00" fill="#ffffff">xai.</text>
<text text-anchor="middle" x="1099" y="-596.07" font-family="Helvetica,sans-Serif" font-size="10.00" fill="#ffffff">games.</text>
<text text-anchor="middle" x="1099" y="-585.07" font-family="Helvetica,sans-Serif" font-size="10.00" fill="#ffffff">observation</text>
</g>
<!-- xai_games_observation&#45;&gt;xai -->
<g id="edge55" class="edge">
<title>xai_games_observation&#45;&gt;xai</title><style>.edge>path:hover{stroke-width:8}</style>
<path fill="none" stroke="black" d="M1116.14,-570.99C1122.77,-559.79 1129.97,-546.4 1135,-533.58 1159.29,-471.76 1170,-454.7 1170,-388.27 1170,-388.27 1170,-388.27 1170,-284.51 1170,-242.07 1145.47,-197.99 1127.77,-171.72"/>
<polygon fill="#000000" stroke="black" points="1130.44,-169.41 1121.85,-163.2 1124.69,-173.41 1130.44,-169.41"/>
</g>
<!-- xai_games_observation&#45;&gt;xai_games -->
<g id="edge56" class="edge">
<title>xai_games_observation&#45;&gt;xai_games</title><style>.edge>path:hover{stroke-width:8}</style>
<path fill="none" stroke="black" d="M1069.31,-574.44C1047.89,-557.74 1019.19,-535.37 998.33,-519.12"/>
<polygon fill="#000000" stroke="black" points="1000.24,-516.16 990.2,-512.78 995.93,-521.68 1000.24,-516.16"/>
</g>
<!-- xai_games_reward -->
<g id="node18" class="node">
<title>xai_games_reward</title><style>.edge>path:hover{stroke-width:8}</style>
<ellipse fill="#c43193" stroke="black" cx="789" cy="-598.57" rx="37.45" ry="28.98"/>
<text text-anchor="middle" x="789" y="-607.07" font-family="Helvetica,sans-Serif" font-size="10.00" fill="#ffffff">xai.</text>
<text text-anchor="middle" x="789" y="-596.07" font-family="Helvetica,sans-Serif" font-size="10.00" fill="#ffffff">games.</text>
<text text-anchor="middle" x="789" y="-585.07" font-family="Helvetica,sans-Serif" font-size="10.00" fill="#ffffff">reward</text>
</g>
<!-- xai_games_reward&#45;&gt;xai -->
<g id="edge57" class="edge">
<title>xai_games_reward&#45;&gt;xai</title><style>.edge>path:hover{stroke-width:8}</style>
<path fill="none" stroke="black" d="M816.79,-578.91C822.92,-575.4 829.52,-572.06 836,-569.58 913.83,-539.82 962.03,-593.45 1020,-533.58 1025.42,-527.98 1063.26,-264.12 1065,-256.52 1068.83,-239.8 1069.87,-235.54 1076,-219.52 1082.03,-203.77 1090.06,-186.69 1096.8,-173.14"/>
<polygon fill="#000000" stroke="black" points="1100.05,-174.48 1101.44,-163.97 1093.8,-171.32 1100.05,-174.48"/>
</g>
<!-- xai_games_reward&#45;&gt;xai_games -->
<g id="edge58" class="edge">
<title>xai_games_reward&#45;&gt;xai_games</title><style>.edge>path:hover{stroke-width:8}</style>
<path fill="none" stroke="black" d="M817.78,-579.7C823.73,-576.22 830.01,-572.68 836,-569.58 870.99,-551.47 882.46,-552.53 917,-533.58 925.47,-528.94 934.34,-523.38 942.38,-518.05"/>
<polygon fill="#000000" stroke="black" points="944.41,-520.9 950.73,-512.4 940.49,-515.1 944.41,-520.9"/>
</g>
<!-- xai_util -->
<g id="node19" class="node">
<title>xai_util</title><style>.edge>path:hover{stroke-width:8}</style>
<ellipse fill="#b81481" stroke="black" cx="1178" cy="-775.55" rx="29.37" ry="18"/>
<text text-anchor="middle" x="1178" y="-773.05" font-family="Helvetica,sans-Serif" font-size="10.00" fill="#ffffff">xai.util</text>
</g>
<!-- xai_util&#45;&gt;xai -->
<g id="edge59" class="edge">
<title>xai_util&#45;&gt;xai</title><style>.edge>path:hover{stroke-width:8}</style>
<path fill="none" stroke="black" d="M1186.35,-758.14C1201.05,-727.71 1230,-660.1 1230,-599.57 1230,-599.57 1230,-599.57 1230,-284.51 1230,-254.87 1231.71,-244 1215,-219.52 1196.87,-192.96 1165.37,-173.39 1141.6,-161.45"/>
<polygon fill="#000000" stroke="black" points="1143.11,-158.3 1132.58,-157.1 1140.07,-164.6 1143.11,-158.3"/>
</g>
<!-- xai_util&#45;&gt;xai_agents_agent -->
<g id="edge60" class="edge">
<title>xai_util&#45;&gt;xai_agents_agent</title><style>.edge>path:hover{stroke-width:8}</style>
<path fill="none" stroke="black" d="M1180.8,-757.6C1186.02,-720.81 1193.82,-631.9 1160,-569.58 1080.22,-422.58 999.32,-433.33 854,-350.5 822.22,-332.39 812.1,-332.03 780,-314.5 777.13,-312.94 774.18,-311.27 771.23,-309.57"/>
<polygon fill="#000000" stroke="black" points="772.86,-306.47 762.47,-304.4 769.3,-312.5 772.86,-306.47"/>
</g>
<!-- xai_util&#45;&gt;xai_games_observation -->
<g id="edge61" class="edge">
<title>xai_util&#45;&gt;xai_games_observation</title><style>.edge>path:hover{stroke-width:8}</style>
<path fill="none" stroke="black" d="M1170.57,-758.09C1158.09,-730.44 1132.62,-674.03 1115.68,-636.51"/>
<polygon fill="#000000" stroke="black" points="1118.66,-634.61 1111.36,-626.94 1112.28,-637.49 1118.66,-634.61"/>
</g>
<!-- xai_util_bytesize -->
<g id="node20" class="node">
<title>xai_util_bytesize</title><style>.edge>path:hover{stroke-width:8}</style>
<ellipse fill="#cc3399" stroke="black" cx="1230" cy="-858.54" rx="41.02" ry="28.98"/>
<text text-anchor="middle" x="1230" y="-867.04" font-family="Helvetica,sans-Serif" font-size="10.00" fill="#ffffff">xai.</text>
<text text-anchor="middle" x="1230" y="-856.04" font-family="Helvetica,sans-Serif" font-size="10.00" fill="#ffffff">util.</text>
<text text-anchor="middle" x="1230" y="-845.04" font-family="Helvetica,sans-Serif" font-size="10.00" fill="#ffffff">bytesize</text>
</g>
<!-- xai_util_bytesize&#45;&gt;xai -->
<g id="edge62" class="edge">
<title>xai_util_bytesize&#45;&gt;xai</title><style>.edge>path:hover{stroke-width:8}</style>
<path fill="none" stroke="black" d="M1240.82,-830.47C1252.67,-798.35 1270,-742.93 1270,-693.56 1270,-693.56 1270,-693.56 1270,-284.51 1270,-218.5 1190.33,-177.55 1143.42,-159.16"/>
<polygon fill="#000000" stroke="black" points="1144.55,-155.85 1133.95,-155.58 1142.07,-162.39 1144.55,-155.85"/>
</g>
<!-- xai_util_bytesize&#45;&gt;xai_util -->
<g id="edge63" class="edge">
<title>xai_util_bytesize&#45;&gt;xai_util</title><style>.edge>path:hover{stroke-width:8}</style>
<path fill="none" stroke="black" d="M1213.55,-831.91C1207.26,-822.12 1200.11,-810.98 1193.87,-801.27"/>
<polygon fill="#000000" stroke="black" points="1196.81,-799.36 1188.46,-792.84 1190.92,-803.15 1196.81,-799.36"/>
</g>
<!-- xai_util_cache -->
<g id="node21" class="node">
<title>xai_util_cache</title><style>.edge>path:hover{stroke-width:8}</style>
<ellipse fill="#ce3b9d" stroke="black" cx="1123" cy="-858.54" rx="48.04" ry="18"/>
<text text-anchor="middle" x="1123" y="-856.04" font-family="Helvetica,sans-Serif" font-size="10.00" fill="#ffffff">xai.util.cache</text>
</g>
<!-- xai_util_cache&#45;&gt;xai -->
<g id="edge64" class="edge">
<title>xai_util_cache&#45;&gt;xai</title><style>.edge>path:hover{stroke-width:8}</style>
<path fill="none" stroke="black" d="M1151.91,-843.97C1172.43,-833 1199.2,-815.74 1216,-793.55 1244.33,-756.12 1250,-740.5 1250,-693.56 1250,-693.56 1250,-693.56 1250,-284.51 1250,-224.15 1182.57,-181.7 1141.31,-161.38"/>
<polygon fill="#000000" stroke="black" points="1142.72,-158.17 1132.18,-157.03 1139.71,-164.49 1142.72,-158.17"/>
</g>
<!-- xai_util_cache&#45;&gt;xai_util -->
<g id="edge65" class="edge">
<title>xai_util_cache&#45;&gt;xai_util</title><style>.edge>path:hover{stroke-width:8}</style>
<path fill="none" stroke="black" d="M1134.4,-840.76C1142.22,-829.24 1152.73,-813.77 1161.47,-800.9"/>
<polygon fill="#000000" stroke="black" points="1164.46,-802.72 1167.18,-792.48 1158.67,-798.79 1164.46,-802.72"/>
</g>
<!-- xai_util_literals -->
<g id="node22" class="node">
<title>xai_util_literals</title><style>.edge>path:hover{stroke-width:8}</style>
<ellipse fill="#d9269d" stroke="black" cx="901" cy="-858.54" rx="35.21" ry="28.98"/>
<text text-anchor="middle" x="901" y="-867.04" font-family="Helvetica,sans-Serif" font-size="10.00" fill="#ffffff">xai.</text>
<text text-anchor="middle" x="901" y="-856.04" font-family="Helvetica,sans-Serif" font-size="10.00" fill="#ffffff">util.</text>
<text text-anchor="middle" x="901" y="-845.04" font-family="Helvetica,sans-Serif" font-size="10.00" fill="#ffffff">literals</text>
</g>
<!-- xai_util_literals&#45;&gt;xai -->
<g id="edge66" class="edge">
<title>xai_util_literals&#45;&gt;xai</title><style>.edge>path:hover{stroke-width:8}</style>
<path fill="none" stroke="black" d="M928.06,-839.36C933.84,-835.86 940.02,-832.4 946,-829.55 990.15,-808.5 1011.34,-823.51 1050,-793.55 1119.95,-739.33 1125.03,-708.86 1160,-627.57 1183.39,-573.19 1190,-557 1190,-497.81 1190,-497.81 1190,-497.81 1190,-284.51 1190,-238.59 1155.98,-194.41 1132.31,-169.22"/>
<polygon fill="#000000" stroke="black" points="1134.52,-166.47 1125.05,-161.73 1129.5,-171.35 1134.52,-166.47"/>
</g>
<!-- xai_util_literals&#45;&gt;xai_games_observation -->
<g id="edge67" class="edge">
<title>xai_util_literals&#45;&gt;xai_games_observation</title><style>.edge>path:hover{stroke-width:8}</style>
<path fill="none" stroke="black" d="M928.19,-839.64C933.97,-836.11 940.11,-832.57 946,-829.55 983.23,-810.43 1004.38,-824.08 1033,-793.55 1073.68,-750.16 1089.38,-680.69 1095.37,-637.73"/>
<polygon fill="#000000" stroke="black" points="1098.86,-638.04 1096.66,-627.67 1091.92,-637.14 1098.86,-638.04"/>
</g>
<!-- xai_util_literals&#45;&gt;xai_util -->
<g id="edge68" class="edge">
<title>xai_util_literals&#45;&gt;xai_util</title><style>.edge>path:hover{stroke-width:8}</style>
<path fill="none" stroke="black" d="M927.32,-839.07C933.26,-835.51 939.69,-832.09 946,-829.55 1017.23,-800.84 1040.35,-811.56 1115,-793.55 1123.71,-791.45 1133.04,-789.02 1141.79,-786.68"/>
<polygon fill="#000000" stroke="black" points="1142.99,-789.98 1151.72,-783.98 1141.15,-783.22 1142.99,-789.98"/>
</g>
<!-- xai_util_maybe -->
<g id="node23" class="node">
<title>xai_util_maybe</title><style>.edge>path:hover{stroke-width:8}</style>
<ellipse fill="#ce3b9d" stroke="black" cx="1006" cy="-858.54" rx="51.43" ry="18"/>
<text text-anchor="middle" x="1006" y="-856.04" font-family="Helvetica,sans-Serif" font-size="10.00" fill="#ffffff">xai.util.maybe</text>
</g>
<!-- xai_util_maybe&#45;&gt;xai -->
<g id="edge69" class="edge">
<title>xai_util_maybe&#45;&gt;xai</title><style>.edge>path:hover{stroke-width:8}</style>
<path fill="none" stroke="black" d="M1034.16,-843.41C1062.26,-828.91 1102.92,-806.66 1115,-793.55 1142.75,-763.44 1183.6,-666.89 1195,-627.57 1211.16,-571.81 1210,-555.87 1210,-497.81 1210,-497.81 1210,-497.81 1210,-284.51 1210,-254.87 1210.45,-244.82 1195,-219.52 1181.01,-196.61 1157.16,-177.42 1138.27,-164.67"/>
<polygon fill="#000000" stroke="black" points="1140.02,-161.63 1129.73,-159.1 1136.2,-167.5 1140.02,-161.63"/>
</g>
<!-- xai_util_maybe&#45;&gt;xai_util -->
<g id="edge70" class="edge">
<title>xai_util_maybe&#45;&gt;xai_util</title><style>.edge>path:hover{stroke-width:8}</style>
<path fill="none" stroke="black" d="M1035.57,-843.62C1066.38,-829.11 1114.5,-806.45 1146.14,-791.55"/>
<polygon fill="#000000" stroke="black" points="1147.84,-794.62 1155.39,-787.19 1144.86,-788.29 1147.84,-794.62"/>
</g>
<!-- ale_py -->
<g id="node24" class="node">
<title>ale_py</title><style>.edge>path:hover{stroke-width:8}</style>
<polygon fill="#c04040" stroke="black" points="418,-793.55 415,-797.55 394,-797.55 391,-793.55 364,-793.55 364,-757.55 418,-757.55 418,-793.55"/>
<text text-anchor="middle" x="391" y="-773.05" font-family="Helvetica,sans-Serif" font-size="10.00" fill="#ffffff">ale_py</text>
</g>
<!-- ale_py&#45;&gt;xai_games_asteroids_asteroids -->
<g id="edge1" class="edge">
<title>ale_py&#45;&gt;xai_games_asteroids_asteroids</title><style>.edge>path:hover{stroke-width:8}</style>
<path fill="none" stroke="black" d="M385.19,-757.3C378.63,-735.19 369.97,-695.86 379,-663.57 407.7,-560.9 440.21,-539.28 513.76,-466.27"/>
<polygon fill="#c04040" stroke="black" points="516.4,-468.58 521,-459.04 511.45,-463.63 516.4,-468.58"/>
</g>
<!-- cv2 -->
<g id="node25" class="node">
<title>cv2</title><style>.edge>path:hover{stroke-width:8}</style>
<polygon fill="#c09540" stroke="black" points="254,-793.55 251,-797.55 230,-797.55 227,-793.55 200,-793.55 200,-757.55 254,-757.55 254,-793.55"/>
<text text-anchor="middle" x="227" y="-773.05" font-family="Helvetica,sans-Serif" font-size="10.00" fill="#000000">cv2</text>
</g>
<!-- cv2&#45;&gt;xai_agents_agent -->
<g id="edge2" class="edge">
<title>cv2&#45;&gt;xai_agents_agent</title><style>.edge>path:hover{stroke-width:8}</style>
<path fill="none" stroke="black" d="M220.24,-757.21C196.67,-693.58 125.22,-470.33 232,-350.5 251.42,-328.71 385.97,-312.3 510.88,-301.56"/>
<polygon fill="#c09540" stroke="black" points="511.33,-305.03 521,-300.69 510.74,-298.05 511.33,-305.03"/>
</g>
<!-- cv2&#45;&gt;xai_games_asteroids_asteroids -->
<g id="edge3" class="edge">
<title>cv2&#45;&gt;xai_games_asteroids_asteroids</title><style>.edge>path:hover{stroke-width:8}</style>
<path fill="none" stroke="black" d="M238.53,-757.19C245.12,-746.99 253.37,-733.74 260,-721.55 321.38,-608.73 286.17,-544.43 383,-460.04 418.63,-429 467.61,-411.37 511.21,-401.37"/>
<polygon fill="#c09540" stroke="black" points="511.98,-404.79 521,-399.23 510.49,-397.95 511.98,-404.79"/>
</g>
<!-- gymnasium -->
<g id="node26" class="node">
<title>gymnasium</title><style>.edge>path:hover{stroke-width:8}</style>
<polygon fill="#95c040" stroke="black" points="346,-793.55 343,-797.55 322,-797.55 319,-793.55 272,-793.55 272,-757.55 346,-757.55 346,-793.55"/>
<text text-anchor="middle" x="309" y="-773.05" font-family="Helvetica,sans-Serif" font-size="10.00" fill="#000000">gymnasium</text>
</g>
<!-- gymnasium&#45;&gt;xai_games_asteroids_asteroids -->
<g id="edge4" class="edge">
<title>gymnasium&#45;&gt;xai_games_asteroids_asteroids</title><style>.edge>path:hover{stroke-width:8}</style>
<path fill="none" stroke="black" d="M311.37,-757.49C319.53,-705.29 351.15,-546.04 443,-460.04 462.41,-441.87 487.11,-427.93 511.63,-417.4"/>
<polygon fill="#95c040" stroke="black" points="513.09,-420.58 521,-413.53 510.42,-414.11 513.09,-420.58"/>
</g>
<!-- matplotlib -->
<g id="node27" class="node">
<title>matplotlib</title><style>.edge>path:hover{stroke-width:8}</style>
<polygon fill="#23c823" stroke="black" points="455.5,-710.56 452.5,-714.56 431.5,-714.56 428.5,-710.56 388.5,-710.56 388.5,-674.56 455.5,-674.56 455.5,-710.56"/>
<text text-anchor="middle" x="422" y="-690.06" font-family="Helvetica,sans-Serif" font-size="10.00" fill="#000000">matplotlib</text>
</g>
<!-- matplotlib&#45;&gt;xai_games_asteroids_observation -->
<g id="edge5" class="edge">
<title>matplotlib&#45;&gt;xai_games_asteroids_observation</title><style>.edge>path:hover{stroke-width:8}</style>
<path fill="none" stroke="black" d="M425.23,-674.49C430.72,-649.23 443.91,-601.46 470,-569.58 481.67,-555.32 496.95,-542.94 512.41,-532.67"/>
<polygon fill="#23c823" stroke="black" points="514.46,-535.52 521,-527.18 510.69,-529.62 514.46,-535.52"/>
</g>
<!-- numpy -->
<g id="node28" class="node">
<title>numpy</title><style>.edge>path:hover{stroke-width:8}</style>
<polygon fill="#06f9a8" stroke="black" points="511,-876.54 508,-880.54 487,-880.54 484,-876.54 457,-876.54 457,-840.54 511,-840.54 511,-876.54"/>
<text text-anchor="middle" x="484" y="-856.04" font-family="Helvetica,sans-Serif" font-size="10.00" fill="#000000">numpy</text>
</g>
<!-- numpy&#45;&gt;xai_agents_agent -->
<g id="edge9" class="edge">
<title>numpy&#45;&gt;xai_agents_agent</title><style>.edge>path:hover{stroke-width:8}</style>
<path fill="none" stroke="black" d="M456.91,-856.47C385.67,-853.03 195.93,-839.65 158,-793.55 126.65,-755.45 152.47,-384.74 188,-350.5 211.88,-327.5 370.7,-310.62 510.94,-299.99"/>
<polygon fill="#06f9a8" stroke="black" points="511.29,-303.47 521,-299.23 510.77,-296.49 511.29,-303.47"/>
</g>
<!-- numpy&#45;&gt;xai_agents_policy -->
<g id="edge10" class="edge">
<title>numpy&#45;&gt;xai_agents_policy</title><style>.edge>path:hover{stroke-width:8}</style>
<path fill="none" stroke="black" d="M456.77,-855.81C390.59,-850.99 224.31,-834.91 191,-793.55 180.97,-781.09 188.33,-773.32 191,-757.55 203.4,-684.24 246,-673.92 246,-599.57 246,-599.57 246,-599.57 246,-495.81 246,-327.99 360.06,-316.33 511.01,-323.96"/>
<polygon fill="#06f9a8" stroke="black" points="510.83,-327.45 521,-324.49 511.2,-320.46 510.83,-327.45"/>
</g>
<!-- numpy&#45;&gt;xai_games_asteroids_observation -->
<g id="edge11" class="edge">
<title>numpy&#45;&gt;xai_games_asteroids_observation</title><style>.edge>path:hover{stroke-width:8}</style>
<path fill="none" stroke="black" d="M481.46,-840.26C475.43,-793.85 463.91,-663.6 508,-569.58 510.03,-565.25 512.44,-561.04 515.13,-556.97"/>
<polygon fill="#06f9a8" stroke="black" points="518,-558.98 521,-548.82 512.32,-554.88 518,-558.98"/>
</g>
<!-- numpy&#45;&gt;xai_games_asteroids_reward -->
<g id="edge12" class="edge">
<title>numpy&#45;&gt;xai_games_asteroids_reward</title><style>.edge>path:hover{stroke-width:8}</style>
<path fill="none" stroke="black" d="M485.99,-840.19C490.31,-804.42 501.5,-720.2 518.46,-653.47"/>
<polygon fill="#06f9a8" stroke="black" points="521.85,-654.32 521,-643.76 515.08,-652.55 521.85,-654.32"/>
</g>
<!-- numpy&#45;&gt;xai_games_env -->
<g id="edge13" class="edge">
<title>numpy&#45;&gt;xai_games_env</title><style>.edge>path:hover{stroke-width:8}</style>
<path fill="none" stroke="black" d="M500.48,-840.49C504.89,-835.65 509.81,-830.02 514.76,-823.92"/>
<polygon fill="#06f9a8" stroke="black" points="517.58,-825.98 521,-815.95 512.08,-821.66 517.58,-825.98"/>
</g>
<!-- numpy&#45;&gt;xai_games_game_stats -->
<g id="edge14" class="edge">
<title>numpy&#45;&gt;xai_games_game_stats</title><style>.edge>path:hover{stroke-width:8}</style>
<path fill="none" stroke="black" d="M503.07,-840.34C505.85,-838.02 508.77,-835.66 512.69,-832.77"/>
<polygon fill="#06f9a8" stroke="black" points="514.88,-835.5 521,-826.85 510.83,-829.79 514.88,-835.5"/>
</g>
<!-- numpy&#45;&gt;xai_games_observation -->
<g id="edge15" class="edge">
<title>numpy&#45;&gt;xai_games_observation</title><style>.edge>path:hover{stroke-width:8}</style>
<path fill="none" stroke="black" d="M502.05,-840.45C505.03,-837.96 508.22,-835.46 512.53,-832.56"/>
<polygon fill="#06f9a8" stroke="black" points="514.41,-835.51 521,-827.21 510.68,-829.58 514.41,-835.51"/>
</g>
<!-- numpy&#45;&gt;xai_games_reward -->
<g id="edge16" class="edge">
<title>numpy&#45;&gt;xai_games_reward</title><style>.edge>path:hover{stroke-width:8}</style>
<path fill="none" stroke="black" d="M503.93,-840.4C506.91,-837.83 510.08,-835.09 513.33,-832.28"/>
<polygon fill="#06f9a8" stroke="black" points="515.74,-834.83 521,-825.64 511.15,-829.54 515.74,-834.83"/>
</g>
<!-- numpy&#45;&gt;cv2 -->
<g id="edge6" class="edge">
<title>numpy&#45;&gt;cv2</title><style>.edge>path:hover{stroke-width:8}</style>
<path fill="none" stroke="black" d="M456.67,-851.12C416.2,-841.3 337.95,-821.08 263.81,-793.57"/>
<polygon fill="#06f9a8" stroke="black" points="264.91,-790.25 254.32,-790 262.45,-796.8 264.91,-790.25"/>
</g>
<!-- numpy&#45;&gt;matplotlib -->
<g id="edge7" class="edge">
<title>numpy&#45;&gt;matplotlib</title><style>.edge>path:hover{stroke-width:8}</style>
<path fill="none" stroke="black" d="M477.48,-840.3C466.66,-811.68 444.92,-754.18 432.1,-720.27"/>
<polygon fill="#06f9a8" stroke="black" points="435.24,-718.68 428.43,-710.57 428.69,-721.16 435.24,-718.68"/>
</g>
<!-- skvideo -->
<g id="node30" class="node">
<title>skvideo</title><style>.edge>path:hover{stroke-width:8}</style>
<polygon fill="#4c4cb3" stroke="black" points="121.5,-616.57 118.5,-620.57 97.5,-620.57 94.5,-616.57 66.5,-616.57 66.5,-580.57 121.5,-580.57 121.5,-616.57"/>
<text text-anchor="middle" x="94" y="-596.07" font-family="Helvetica,sans-Serif" font-size="10.00" fill="#ffffff">skvideo</text>
</g>
<!-- numpy&#45;&gt;skvideo -->
<g id="edge8" class="edge">
<title>numpy&#45;&gt;skvideo</title><style>.edge>path:hover{stroke-width:8}</style>
<path fill="none" stroke="black" d="M456.94,-856.77C380.68,-854.02 166.55,-842.03 120,-793.55 76.82,-748.57 82.19,-668.39 88.69,-626.6"/>
<polygon fill="#06f9a8" stroke="black" points="92.16,-627.05 90.38,-616.6 85.26,-625.88 92.16,-627.05"/>
</g>
<!-- psutil -->
<g id="node29" class="node">
<title>psutil</title><style>.edge>path:hover{stroke-width:8}</style>
<polygon fill="#4095c0" stroke="black" points="1288,-1036.53 1285,-1040.53 1264,-1040.53 1261,-1036.53 1234,-1036.53 1234,-1000.53 1288,-1000.53 1288,-1036.53"/>
<text text-anchor="middle" x="1261" y="-1016.03" font-family="Helvetica,sans-Serif" font-size="10.00" fill="#000000">psutil</text>
</g>
<!-- psutil&#45;&gt;xai_util_bytesize -->
<g id="edge17" class="edge">
<title>psutil&#45;&gt;xai_util_bytesize</title><style>.edge>path:hover{stroke-width:8}</style>
<path fill="none" stroke="black" d="M1257.62,-1000.32C1254.22,-982.96 1248.73,-955 1243.54,-928.56"/>
<polygon fill="#4095c0" stroke="black" points="1246.93,-927.67 1241.57,-918.53 1240.07,-929.02 1246.93,-927.67"/>
</g>
<!-- skvideo&#45;&gt;xai_agents_agent -->
<g id="edge18" class="edge">
<title>skvideo&#45;&gt;xai_agents_agent</title><style>.edge>path:hover{stroke-width:8}</style>
<path fill="none" stroke="black" d="M89.31,-580.52C78.13,-535.68 55.28,-413.64 118,-350.5 145.93,-322.39 346.03,-305.43 510.71,-296.11"/>
<polygon fill="#4c4cb3" stroke="black" points="511.21,-299.58 521,-295.53 510.82,-292.59 511.21,-299.58"/>
</g>
<!-- torch -->
<g id="node31" class="node">
<title>torch</title><style>.edge>path:hover{stroke-width:8}</style>
<polygon fill="#a60cf3" stroke="black" points="834,-1036.53 831,-1040.53 810,-1040.53 807,-1036.53 780,-1036.53 780,-1000.53 834,-1000.53 834,-1036.53"/>
<text text-anchor="middle" x="807" y="-1016.03" font-family="Helvetica,sans-Serif" font-size="10.00" fill="#ffffff">torch</text>
</g>
<!-- torch&#45;&gt;xai_agents_agent -->
<g id="edge19" class="edge">
<title>torch&#45;&gt;xai_agents_agent</title><style>.edge>path:hover{stroke-width:8}</style>
<path fill="none" stroke="black" d="M780,-1017.13C649.79,-1014.98 90.36,-1003.55 24,-964.53 7.1,-954.6 0,-947.13 0,-927.53 0,-927.53 0,-927.53 0,-495.81 0,-422.52 17,-391.14 78,-350.5 113.9,-326.59 335.07,-308.65 510.82,-297.94"/>
<polygon fill="#a60cf3" stroke="black" points="511.23,-301.42 521,-297.32 510.81,-294.43 511.23,-301.42"/>
</g>
<!-- torch&#45;&gt;xai_agents_memory -->
<g id="edge20" class="edge">
<title>torch&#45;&gt;xai_agents_memory</title><style>.edge>path:hover{stroke-width:8}</style>
<path fill="none" stroke="black" d="M807,-1000.32C807,-982.96 807,-955 807,-928.56"/>
<polygon fill="#a60cf3" stroke="black" points="810.5,-928.53 807,-918.53 803.5,-928.53 810.5,-928.53"/>
</g>
<!-- torch&#45;&gt;xai_agents_policy -->
<g id="edge21" class="edge">
<title>torch&#45;&gt;xai_agents_policy</title><style>.edge>path:hover{stroke-width:8}</style>
<path fill="none" stroke="black" d="M779.63,-1017.26C642.64,-1015.58 38,-1003.81 38,-927.53 38,-927.53 38,-927.53 38,-691.56 38,-512.37 91.57,-428.26 253,-350.5 307.15,-324.42 405.34,-319.86 510.78,-320.72"/>
<polygon fill="#a60cf3" stroke="black" points="510.97,-324.23 521,-320.82 511.04,-317.23 510.97,-324.23"/>
</g>
<!-- torch&#45;&gt;xai_games_observation -->
<g id="edge22" class="edge">
<title>torch&#45;&gt;xai_games_observation</title><style>.edge>path:hover{stroke-width:8}</style>
<path fill="none" stroke="black" d="M834.04,-1015.4C924.23,-1007.75 1212.88,-978.93 1280,-918.53 1300.47,-900.11 1299,-887.08 1299,-859.54 1299,-859.54 1299,-859.54 1299,-774.55 1299,-755.03 1293.54,-737.19 1284.42,-721"/>
<polygon fill="#a60cf3" stroke="black" points="1287.22,-718.86 1279,-712.18 1281.25,-722.53 1287.22,-718.86"/>
</g>
<!-- torch&#45;&gt;xai_util_literals -->
<g id="edge23" class="edge">
<title>torch&#45;&gt;xai_util_literals</title><style>.edge>path:hover{stroke-width:8}</style>
<path fill="none" stroke="black" d="M817.24,-1000.32C827.75,-982.65 844.79,-954.01 860.76,-927.17"/>
<polygon fill="#a60cf3" stroke="black" points="863.8,-928.91 865.9,-918.53 857.78,-925.33 863.8,-928.91"/>
</g>
</g>
</svg>
